<svg xmlns="http://www.w3.org/2000/svg" width="25" height="25" viewBox="0 0 25 25"><title>stores_user_marker</title><circle cx="12.5" cy="12.5" r="7.26" style="fill:#2b4591"/><path d="M13.51,5.64a7.87,7.87,0,1,1-7.87,7.87,7.87,7.87,0,0,1,7.87-7.87m0-4.63A12.5,12.5,0,1,0,26,13.51,12.51,12.51,0,0,0,13.51,1h0Z" transform="translate(-1.01 -1.01)" style="fill:#2b4591;opacity:0.45"/><path d="M13.51,21.24a7.74,7.74,0,1,1,7.74-7.74A7.74,7.74,0,0,1,13.51,21.24Zm0-13.34a5.61,5.61,0,1,0,5.61,5.61A5.61,5.61,0,0,0,13.51,7.9Z" transform="translate(-1.01 -1.01)" style="fill:#fff"/></svg>
